<mxfile host="app.diagrams.net" modified="2024-03-05T13:05:53.322Z" agent="Mozilla/5.0 (Macintosh; Intel Mac OS X 10_15_7) AppleWebKit/605.1.15 (KHTML, like Gecko) Version/17.1 Safari/605.1.15" etag="HO5KlHEnvN8m36nGpFpp" version="23.1.7" type="device">
  <diagram name="Sida-1" id="YUBVa8yf24fu2AFU5YBJ">
    <mxGraphModel dx="2052" dy="2551" grid="1" gridSize="10" guides="1" tooltips="1" connect="1" arrows="1" fold="1" page="1" pageScale="1" pageWidth="827" pageHeight="1169" math="0" shadow="0">
      <root>
        <mxCell id="0" />
        <mxCell id="1" parent="0" />
        <mxCell id="zSwx9xJ70yb3x-qx0YBj-97" value="towers" style="shape=folder;fontStyle=1;spacingTop=10;tabWidth=40;tabHeight=14;tabPosition=left;html=1;whiteSpace=wrap;labelPosition=center;verticalLabelPosition=top;align=center;verticalAlign=bottom;spacing=-30;fillColor=#bac8d3;strokeColor=#23445d;" vertex="1" parent="1">
          <mxGeometry x="952.5" y="665" width="195" height="260" as="geometry" />
        </mxCell>
        <mxCell id="zSwx9xJ70yb3x-qx0YBj-57" value="java awt" style="shape=folder;fontStyle=1;spacingTop=10;tabWidth=40;tabHeight=14;tabPosition=left;html=1;whiteSpace=wrap;labelPosition=center;verticalLabelPosition=top;align=center;verticalAlign=bottom;spacing=-30;fillColor=#d0cee2;strokeColor=#56517e;" vertex="1" parent="1">
          <mxGeometry x="20" y="320" width="180" height="400" as="geometry" />
        </mxCell>
        <mxCell id="zSwx9xJ70yb3x-qx0YBj-48" value="swing" style="shape=folder;fontStyle=1;spacingTop=10;tabWidth=40;tabHeight=14;tabPosition=left;html=1;whiteSpace=wrap;labelPosition=center;verticalLabelPosition=top;align=center;verticalAlign=bottom;spacing=-30;fillColor=#b0e3e6;strokeColor=#0e8088;" vertex="1" parent="1">
          <mxGeometry x="20" y="20" width="350" height="270" as="geometry" />
        </mxCell>
        <mxCell id="zSwx9xJ70yb3x-qx0YBj-30" value="bullets" style="shape=folder;fontStyle=1;spacingTop=10;tabWidth=40;tabHeight=14;tabPosition=left;html=1;whiteSpace=wrap;fillColor=#dae8fc;strokeColor=#6c8ebf;labelPosition=center;verticalLabelPosition=top;align=center;verticalAlign=bottom;spacing=-31;" vertex="1" parent="1">
          <mxGeometry x="370" y="680" width="200" height="350" as="geometry" />
        </mxCell>
        <mxCell id="zSwx9xJ70yb3x-qx0YBj-25" value="core" style="shape=folder;fontStyle=1;spacingTop=10;tabWidth=40;tabHeight=14;tabPosition=left;html=1;whiteSpace=wrap;labelPosition=center;verticalLabelPosition=top;align=center;verticalAlign=bottom;spacing=-31;fillColor=#fff2cc;strokeColor=#d6b656;" vertex="1" parent="1">
          <mxGeometry x="490" y="-220" width="1070" height="780" as="geometry" />
        </mxCell>
        <mxCell id="zSwx9xJ70yb3x-qx0YBj-1" value="GameFrame" style="swimlane;fontStyle=1;align=center;verticalAlign=top;childLayout=stackLayout;horizontal=1;startSize=26;horizontalStack=0;resizeParent=1;resizeParentMax=0;resizeLast=0;collapsible=1;marginBottom=0;whiteSpace=wrap;html=1;" vertex="1" parent="1">
          <mxGeometry x="785" y="175" width="160" height="250" as="geometry" />
        </mxCell>
        <mxCell id="zSwx9xJ70yb3x-qx0YBj-2" value="- Gamepanel: GamePanel&lt;br&gt;- Timer: timer" style="text;strokeColor=none;fillColor=none;align=left;verticalAlign=top;spacingLeft=4;spacingRight=4;overflow=hidden;rotatable=0;points=[[0,0.5],[1,0.5]];portConstraint=eastwest;whiteSpace=wrap;html=1;" vertex="1" parent="zSwx9xJ70yb3x-qx0YBj-1">
          <mxGeometry y="26" width="160" height="54" as="geometry" />
        </mxCell>
        <mxCell id="zSwx9xJ70yb3x-qx0YBj-3" value="" style="line;strokeWidth=1;fillColor=none;align=left;verticalAlign=middle;spacingTop=-1;spacingLeft=3;spacingRight=3;rotatable=0;labelPosition=right;points=[];portConstraint=eastwest;strokeColor=inherit;" vertex="1" parent="zSwx9xJ70yb3x-qx0YBj-1">
          <mxGeometry y="80" width="160" height="8" as="geometry" />
        </mxCell>
        <mxCell id="zSwx9xJ70yb3x-qx0YBj-4" value="+ main&lt;br&gt;+ actionPerformed&lt;br&gt;&amp;nbsp;(ActionEvent arg0)" style="text;strokeColor=none;fillColor=none;align=left;verticalAlign=top;spacingLeft=4;spacingRight=4;overflow=hidden;rotatable=0;points=[[0,0.5],[1,0.5]];portConstraint=eastwest;whiteSpace=wrap;html=1;" vertex="1" parent="zSwx9xJ70yb3x-qx0YBj-1">
          <mxGeometry y="88" width="160" height="162" as="geometry" />
        </mxCell>
        <mxCell id="zSwx9xJ70yb3x-qx0YBj-5" value="Block" style="swimlane;fontStyle=1;align=center;verticalAlign=top;childLayout=stackLayout;horizontal=1;startSize=26;horizontalStack=0;resizeParent=1;resizeParentMax=0;resizeLast=0;collapsible=1;marginBottom=0;whiteSpace=wrap;html=1;" vertex="1" parent="1">
          <mxGeometry x="1285" y="175" width="250" height="260" as="geometry" />
        </mxCell>
        <mxCell id="zSwx9xJ70yb3x-qx0YBj-6" value="+ various Getters and Setters for all fields&lt;br&gt;- traversable: boolean&lt;br&gt;&amp;nbsp;- Tower: tower&lt;br&gt;&amp;nbsp;- terrain: int&lt;br&gt;&amp;nbsp;-&lt;u&gt;width, height: int&lt;/u&gt;&lt;br&gt;&amp;nbsp;- row, col: int&lt;br&gt;&amp;nbsp;- borderOrientation: boolean[]" style="text;strokeColor=none;fillColor=none;align=left;verticalAlign=top;spacingLeft=4;spacingRight=4;overflow=hidden;rotatable=0;points=[[0,0.5],[1,0.5]];portConstraint=eastwest;whiteSpace=wrap;html=1;" vertex="1" parent="zSwx9xJ70yb3x-qx0YBj-5">
          <mxGeometry y="26" width="250" height="124" as="geometry" />
        </mxCell>
        <mxCell id="zSwx9xJ70yb3x-qx0YBj-7" value="" style="line;strokeWidth=1;fillColor=none;align=left;verticalAlign=middle;spacingTop=-1;spacingLeft=3;spacingRight=3;rotatable=0;labelPosition=right;points=[];portConstraint=eastwest;strokeColor=inherit;" vertex="1" parent="zSwx9xJ70yb3x-qx0YBj-5">
          <mxGeometry y="150" width="250" height="8" as="geometry" />
        </mxCell>
        <mxCell id="zSwx9xJ70yb3x-qx0YBj-8" value="+ placeTower (Tower): boolean&lt;br&gt;&amp;nbsp;+ paint (Graphics, int, int): void&lt;br&gt;&amp;nbsp;+ createGradientImage (int, int, color, color): gradientImage&lt;br&gt;&amp;nbsp;+ createCompatibaleImage (int, int): GraphicsEnvironment" style="text;strokeColor=none;fillColor=none;align=left;verticalAlign=top;spacingLeft=4;spacingRight=4;overflow=hidden;rotatable=0;points=[[0,0.5],[1,0.5]];portConstraint=eastwest;whiteSpace=wrap;html=1;" vertex="1" parent="zSwx9xJ70yb3x-qx0YBj-5">
          <mxGeometry y="158" width="250" height="102" as="geometry" />
        </mxCell>
        <mxCell id="zSwx9xJ70yb3x-qx0YBj-13" value="GameObject&lt;br&gt;{abstract}" style="swimlane;fontStyle=1;align=center;verticalAlign=top;childLayout=stackLayout;horizontal=1;startSize=40;horizontalStack=0;resizeParent=1;resizeParentMax=0;resizeLast=0;collapsible=1;marginBottom=0;whiteSpace=wrap;html=1;" vertex="1" parent="1">
          <mxGeometry x="875" y="-174" width="290" height="250" as="geometry" />
        </mxCell>
        <mxCell id="zSwx9xJ70yb3x-qx0YBj-14" value="- posX, posY, direction, radius: double&lt;br&gt;- image: image&lt;br&gt;+" style="text;strokeColor=none;fillColor=none;align=left;verticalAlign=top;spacingLeft=4;spacingRight=4;overflow=hidden;rotatable=0;points=[[0,0.5],[1,0.5]];portConstraint=eastwest;whiteSpace=wrap;html=1;" vertex="1" parent="zSwx9xJ70yb3x-qx0YBj-13">
          <mxGeometry y="40" width="290" height="60" as="geometry" />
        </mxCell>
        <mxCell id="zSwx9xJ70yb3x-qx0YBj-15" value="" style="line;strokeWidth=1;fillColor=none;align=left;verticalAlign=middle;spacingTop=-1;spacingLeft=3;spacingRight=3;rotatable=0;labelPosition=right;points=[];portConstraint=eastwest;strokeColor=inherit;" vertex="1" parent="zSwx9xJ70yb3x-qx0YBj-13">
          <mxGeometry y="100" width="290" height="8" as="geometry" />
        </mxCell>
        <mxCell id="zSwx9xJ70yb3x-qx0YBj-16" value="+ moveForward (double): void&lt;br&gt;&amp;nbsp;+ getDistance (GameObject): double&lt;br&gt;&amp;nbsp;+ getDistance(double, double): double&lt;br&gt;&amp;nbsp;+ getAngle (GameObject): double&lt;br&gt;&amp;nbsp;+ getAngle(double, double): double&lt;br&gt;+ paint(Graphics g): void&lt;br&gt;&amp;nbsp;+&lt;i&gt;&amp;nbsp;update(int): void&lt;/i&gt;&lt;br&gt;+ getters and setters for all fields" style="text;strokeColor=none;fillColor=none;align=left;verticalAlign=top;spacingLeft=4;spacingRight=4;overflow=hidden;rotatable=0;points=[[0,0.5],[1,0.5]];portConstraint=eastwest;whiteSpace=wrap;html=1;" vertex="1" parent="zSwx9xJ70yb3x-qx0YBj-13">
          <mxGeometry y="108" width="290" height="142" as="geometry" />
        </mxCell>
        <mxCell id="zSwx9xJ70yb3x-qx0YBj-17" value="Map" style="swimlane;fontStyle=1;align=center;verticalAlign=top;childLayout=stackLayout;horizontal=1;startSize=26;horizontalStack=0;resizeParent=1;resizeParentMax=0;resizeLast=0;collapsible=1;marginBottom=0;whiteSpace=wrap;html=1;" vertex="1" parent="1">
          <mxGeometry x="515" y="175" width="230" height="230" as="geometry" />
        </mxCell>
        <mxCell id="zSwx9xJ70yb3x-qx0YBj-18" value="- blockArray: Block[][]&lt;br&gt;- numRows, numCols: int&lt;br&gt;&amp;nbsp;- endBlock: Block&lt;div&gt;&lt;br/&gt;&lt;/div&gt;" style="text;strokeColor=none;fillColor=none;align=left;verticalAlign=top;spacingLeft=4;spacingRight=4;overflow=hidden;rotatable=0;points=[[0,0.5],[1,0.5]];portConstraint=eastwest;whiteSpace=wrap;html=1;" vertex="1" parent="zSwx9xJ70yb3x-qx0YBj-17">
          <mxGeometry y="26" width="230" height="74" as="geometry" />
        </mxCell>
        <mxCell id="zSwx9xJ70yb3x-qx0YBj-19" value="" style="line;strokeWidth=1;fillColor=none;align=left;verticalAlign=middle;spacingTop=-1;spacingLeft=3;spacingRight=3;rotatable=0;labelPosition=right;points=[];portConstraint=eastwest;strokeColor=inherit;" vertex="1" parent="zSwx9xJ70yb3x-qx0YBj-17">
          <mxGeometry y="100" width="230" height="8" as="geometry" />
        </mxCell>
        <mxCell id="zSwx9xJ70yb3x-qx0YBj-20" value="+ paint(Graphics): void&lt;br&gt;+ getStartDirection: int&lt;br&gt;&amp;nbsp;+ getFinishDirection: int&lt;br&gt;&amp;nbsp;+ determineBlockOrientation():void&lt;br&gt;&amp;nbsp;+ getPath(): Block[]&lt;br&gt;&amp;nbsp;+ placeTower(int, int, Tower): boolean&lt;br&gt;&amp;nbsp;+ getBlock (int, int): Block" style="text;strokeColor=none;fillColor=none;align=left;verticalAlign=top;spacingLeft=4;spacingRight=4;overflow=hidden;rotatable=0;points=[[0,0.5],[1,0.5]];portConstraint=eastwest;whiteSpace=wrap;html=1;" vertex="1" parent="zSwx9xJ70yb3x-qx0YBj-17">
          <mxGeometry y="108" width="230" height="122" as="geometry" />
        </mxCell>
        <mxCell id="zSwx9xJ70yb3x-qx0YBj-26" value="Bullet" style="swimlane;fontStyle=1;align=center;verticalAlign=top;childLayout=stackLayout;horizontal=1;startSize=26;horizontalStack=0;resizeParent=1;resizeParentMax=0;resizeLast=0;collapsible=1;marginBottom=0;whiteSpace=wrap;html=1;" vertex="1" parent="1">
          <mxGeometry x="390" y="740" width="160" height="260" as="geometry" />
        </mxCell>
        <mxCell id="zSwx9xJ70yb3x-qx0YBj-27" value="- target: Monster&lt;br&gt;- bulletDamage: double&lt;br&gt;&amp;nbsp;+ gamePanel: GamePanel&lt;br&gt;&amp;nbsp;" style="text;strokeColor=none;fillColor=none;align=left;verticalAlign=top;spacingLeft=4;spacingRight=4;overflow=hidden;rotatable=0;points=[[0,0.5],[1,0.5]];portConstraint=eastwest;whiteSpace=wrap;html=1;" vertex="1" parent="zSwx9xJ70yb3x-qx0YBj-26">
          <mxGeometry y="26" width="160" height="64" as="geometry" />
        </mxCell>
        <mxCell id="zSwx9xJ70yb3x-qx0YBj-28" value="" style="line;strokeWidth=1;fillColor=none;align=left;verticalAlign=middle;spacingTop=-1;spacingLeft=3;spacingRight=3;rotatable=0;labelPosition=right;points=[];portConstraint=eastwest;strokeColor=inherit;" vertex="1" parent="zSwx9xJ70yb3x-qx0YBj-26">
          <mxGeometry y="90" width="160" height="8" as="geometry" />
        </mxCell>
        <mxCell id="zSwx9xJ70yb3x-qx0YBj-29" value="+ update(int): void&lt;br&gt;+ getBulletDamage(): double&lt;br&gt;&amp;nbsp;+ setBulletDamage(double): void&lt;br&gt;&amp;nbsp;+ getTarget(): Monster&lt;br&gt;&amp;nbsp;+ setTarget(Monster target): void" style="text;strokeColor=none;fillColor=none;align=left;verticalAlign=top;spacingLeft=4;spacingRight=4;overflow=hidden;rotatable=0;points=[[0,0.5],[1,0.5]];portConstraint=eastwest;whiteSpace=wrap;html=1;" vertex="1" parent="zSwx9xJ70yb3x-qx0YBj-26">
          <mxGeometry y="98" width="160" height="162" as="geometry" />
        </mxCell>
        <mxCell id="zSwx9xJ70yb3x-qx0YBj-31" value="monsters" style="shape=folder;fontStyle=1;spacingTop=10;tabWidth=40;tabHeight=14;tabPosition=left;html=1;whiteSpace=wrap;labelPosition=center;verticalLabelPosition=top;align=center;verticalAlign=bottom;spacing=-30;fillColor=#fad7ac;strokeColor=#b46504;" vertex="1" parent="1">
          <mxGeometry x="595" y="680" width="195" height="260" as="geometry" />
        </mxCell>
        <mxCell id="zSwx9xJ70yb3x-qx0YBj-32" value="Monster" style="swimlane;fontStyle=1;align=center;verticalAlign=top;childLayout=stackLayout;horizontal=1;startSize=26;horizontalStack=0;resizeParent=1;resizeParentMax=0;resizeLast=0;collapsible=1;marginBottom=0;whiteSpace=wrap;html=1;" vertex="1" parent="1">
          <mxGeometry x="612.5" y="730" width="160" height="180" as="geometry" />
        </mxCell>
        <mxCell id="zSwx9xJ70yb3x-qx0YBj-33" value="- path: Block[]&lt;br&gt;- destinationCount: int&lt;br&gt;&amp;nbsp;- speed, health: double&lt;br&gt;&amp;nbsp;- gamepanel: GamePanel" style="text;strokeColor=none;fillColor=none;align=left;verticalAlign=top;spacingLeft=4;spacingRight=4;overflow=hidden;rotatable=0;points=[[0,0.5],[1,0.5]];portConstraint=eastwest;whiteSpace=wrap;html=1;" vertex="1" parent="zSwx9xJ70yb3x-qx0YBj-32">
          <mxGeometry y="26" width="160" height="74" as="geometry" />
        </mxCell>
        <mxCell id="zSwx9xJ70yb3x-qx0YBj-34" value="" style="line;strokeWidth=1;fillColor=none;align=left;verticalAlign=middle;spacingTop=-1;spacingLeft=3;spacingRight=3;rotatable=0;labelPosition=right;points=[];portConstraint=eastwest;strokeColor=inherit;" vertex="1" parent="zSwx9xJ70yb3x-qx0YBj-32">
          <mxGeometry y="100" width="160" height="8" as="geometry" />
        </mxCell>
        <mxCell id="zSwx9xJ70yb3x-qx0YBj-35" value="+ update(int): void&lt;br&gt;+ paint(Graphics:void&lt;br&gt;&amp;nbsp;+getHealth():double&lt;br&gt;&amp;nbsp;+ setHealth(double): void" style="text;strokeColor=none;fillColor=none;align=left;verticalAlign=top;spacingLeft=4;spacingRight=4;overflow=hidden;rotatable=0;points=[[0,0.5],[1,0.5]];portConstraint=eastwest;whiteSpace=wrap;html=1;" vertex="1" parent="zSwx9xJ70yb3x-qx0YBj-32">
          <mxGeometry y="108" width="160" height="72" as="geometry" />
        </mxCell>
        <mxCell id="zSwx9xJ70yb3x-qx0YBj-36" value="JFrame" style="swimlane;fontStyle=1;align=center;verticalAlign=top;childLayout=stackLayout;horizontal=1;startSize=26;horizontalStack=0;resizeParent=1;resizeParentMax=0;resizeLast=0;collapsible=1;marginBottom=0;whiteSpace=wrap;html=1;" vertex="1" parent="1">
          <mxGeometry x="30" y="60" width="160" height="86" as="geometry" />
        </mxCell>
        <mxCell id="zSwx9xJ70yb3x-qx0YBj-37" value="+ field: type" style="text;strokeColor=none;fillColor=none;align=left;verticalAlign=top;spacingLeft=4;spacingRight=4;overflow=hidden;rotatable=0;points=[[0,0.5],[1,0.5]];portConstraint=eastwest;whiteSpace=wrap;html=1;" vertex="1" parent="zSwx9xJ70yb3x-qx0YBj-36">
          <mxGeometry y="26" width="160" height="26" as="geometry" />
        </mxCell>
        <mxCell id="zSwx9xJ70yb3x-qx0YBj-38" value="" style="line;strokeWidth=1;fillColor=none;align=left;verticalAlign=middle;spacingTop=-1;spacingLeft=3;spacingRight=3;rotatable=0;labelPosition=right;points=[];portConstraint=eastwest;strokeColor=inherit;" vertex="1" parent="zSwx9xJ70yb3x-qx0YBj-36">
          <mxGeometry y="52" width="160" height="8" as="geometry" />
        </mxCell>
        <mxCell id="zSwx9xJ70yb3x-qx0YBj-39" value="+ method(type): type" style="text;strokeColor=none;fillColor=none;align=left;verticalAlign=top;spacingLeft=4;spacingRight=4;overflow=hidden;rotatable=0;points=[[0,0.5],[1,0.5]];portConstraint=eastwest;whiteSpace=wrap;html=1;" vertex="1" parent="zSwx9xJ70yb3x-qx0YBj-36">
          <mxGeometry y="60" width="160" height="26" as="geometry" />
        </mxCell>
        <mxCell id="zSwx9xJ70yb3x-qx0YBj-40" value="Color" style="swimlane;fontStyle=1;align=center;verticalAlign=top;childLayout=stackLayout;horizontal=1;startSize=26;horizontalStack=0;resizeParent=1;resizeParentMax=0;resizeLast=0;collapsible=1;marginBottom=0;whiteSpace=wrap;html=1;" vertex="1" parent="1">
          <mxGeometry x="30" y="546" width="160" height="34" as="geometry" />
        </mxCell>
        <mxCell id="zSwx9xJ70yb3x-qx0YBj-49" value="Timer" style="swimlane;fontStyle=1;align=center;verticalAlign=top;childLayout=stackLayout;horizontal=1;startSize=26;horizontalStack=0;resizeParent=1;resizeParentMax=0;resizeLast=0;collapsible=1;marginBottom=0;whiteSpace=wrap;html=1;" vertex="1" parent="1">
          <mxGeometry x="30" y="164" width="160" height="86" as="geometry" />
        </mxCell>
        <mxCell id="zSwx9xJ70yb3x-qx0YBj-50" value="+ field: type" style="text;strokeColor=none;fillColor=none;align=left;verticalAlign=top;spacingLeft=4;spacingRight=4;overflow=hidden;rotatable=0;points=[[0,0.5],[1,0.5]];portConstraint=eastwest;whiteSpace=wrap;html=1;" vertex="1" parent="zSwx9xJ70yb3x-qx0YBj-49">
          <mxGeometry y="26" width="160" height="26" as="geometry" />
        </mxCell>
        <mxCell id="zSwx9xJ70yb3x-qx0YBj-51" value="" style="line;strokeWidth=1;fillColor=none;align=left;verticalAlign=middle;spacingTop=-1;spacingLeft=3;spacingRight=3;rotatable=0;labelPosition=right;points=[];portConstraint=eastwest;strokeColor=inherit;" vertex="1" parent="zSwx9xJ70yb3x-qx0YBj-49">
          <mxGeometry y="52" width="160" height="8" as="geometry" />
        </mxCell>
        <mxCell id="zSwx9xJ70yb3x-qx0YBj-52" value="+ method(type): type" style="text;strokeColor=none;fillColor=none;align=left;verticalAlign=top;spacingLeft=4;spacingRight=4;overflow=hidden;rotatable=0;points=[[0,0.5],[1,0.5]];portConstraint=eastwest;whiteSpace=wrap;html=1;" vertex="1" parent="zSwx9xJ70yb3x-qx0YBj-49">
          <mxGeometry y="60" width="160" height="26" as="geometry" />
        </mxCell>
        <mxCell id="zSwx9xJ70yb3x-qx0YBj-53" value="JPanel" style="swimlane;fontStyle=1;align=center;verticalAlign=top;childLayout=stackLayout;horizontal=1;startSize=26;horizontalStack=0;resizeParent=1;resizeParentMax=0;resizeLast=0;collapsible=1;marginBottom=0;whiteSpace=wrap;html=1;" vertex="1" parent="1">
          <mxGeometry x="200" y="60" width="160" height="86" as="geometry" />
        </mxCell>
        <mxCell id="zSwx9xJ70yb3x-qx0YBj-54" value="+ field: type" style="text;strokeColor=none;fillColor=none;align=left;verticalAlign=top;spacingLeft=4;spacingRight=4;overflow=hidden;rotatable=0;points=[[0,0.5],[1,0.5]];portConstraint=eastwest;whiteSpace=wrap;html=1;" vertex="1" parent="zSwx9xJ70yb3x-qx0YBj-53">
          <mxGeometry y="26" width="160" height="26" as="geometry" />
        </mxCell>
        <mxCell id="zSwx9xJ70yb3x-qx0YBj-55" value="" style="line;strokeWidth=1;fillColor=none;align=left;verticalAlign=middle;spacingTop=-1;spacingLeft=3;spacingRight=3;rotatable=0;labelPosition=right;points=[];portConstraint=eastwest;strokeColor=inherit;" vertex="1" parent="zSwx9xJ70yb3x-qx0YBj-53">
          <mxGeometry y="52" width="160" height="8" as="geometry" />
        </mxCell>
        <mxCell id="zSwx9xJ70yb3x-qx0YBj-56" value="+ method(type): type" style="text;strokeColor=none;fillColor=none;align=left;verticalAlign=top;spacingLeft=4;spacingRight=4;overflow=hidden;rotatable=0;points=[[0,0.5],[1,0.5]];portConstraint=eastwest;whiteSpace=wrap;html=1;" vertex="1" parent="zSwx9xJ70yb3x-qx0YBj-53">
          <mxGeometry y="60" width="160" height="26" as="geometry" />
        </mxCell>
        <mxCell id="zSwx9xJ70yb3x-qx0YBj-58" value="ActionEvent" style="swimlane;fontStyle=1;align=center;verticalAlign=top;childLayout=stackLayout;horizontal=1;startSize=26;horizontalStack=0;resizeParent=1;resizeParentMax=0;resizeLast=0;collapsible=1;marginBottom=0;whiteSpace=wrap;html=1;" vertex="1" parent="1">
          <mxGeometry x="30" y="378" width="160" height="34" as="geometry" />
        </mxCell>
        <mxCell id="zSwx9xJ70yb3x-qx0YBj-59" value="Graphics" style="swimlane;fontStyle=1;align=center;verticalAlign=top;childLayout=stackLayout;horizontal=1;startSize=26;horizontalStack=0;resizeParent=1;resizeParentMax=0;resizeLast=0;collapsible=1;marginBottom=0;whiteSpace=wrap;html=1;" vertex="1" parent="1">
          <mxGeometry x="30" y="478" width="160" height="34" as="geometry" />
        </mxCell>
        <mxCell id="zSwx9xJ70yb3x-qx0YBj-60" value="Image" style="swimlane;fontStyle=1;align=center;verticalAlign=top;childLayout=stackLayout;horizontal=1;startSize=26;horizontalStack=0;resizeParent=1;resizeParentMax=0;resizeLast=0;collapsible=1;marginBottom=0;whiteSpace=wrap;html=1;" vertex="1" parent="1">
          <mxGeometry x="30" y="512" width="160" height="34" as="geometry" />
        </mxCell>
        <mxCell id="zSwx9xJ70yb3x-qx0YBj-61" value="Toolkit" style="swimlane;fontStyle=1;align=center;verticalAlign=top;childLayout=stackLayout;horizontal=1;startSize=26;horizontalStack=0;resizeParent=1;resizeParentMax=0;resizeLast=0;collapsible=1;marginBottom=0;whiteSpace=wrap;html=1;" vertex="1" parent="1">
          <mxGeometry x="30" y="601" width="160" height="34" as="geometry" />
        </mxCell>
        <mxCell id="zSwx9xJ70yb3x-qx0YBj-65" value="ActionListener" style="swimlane;fontStyle=1;align=center;verticalAlign=top;childLayout=stackLayout;horizontal=1;startSize=26;horizontalStack=0;resizeParent=1;resizeParentMax=0;resizeLast=0;collapsible=1;marginBottom=0;whiteSpace=wrap;html=1;" vertex="1" parent="1">
          <mxGeometry x="30" y="412" width="160" height="34" as="geometry" />
        </mxCell>
        <mxCell id="zSwx9xJ70yb3x-qx0YBj-66" value="MouseEvent" style="swimlane;fontStyle=1;align=center;verticalAlign=top;childLayout=stackLayout;horizontal=1;startSize=26;horizontalStack=0;resizeParent=1;resizeParentMax=0;resizeLast=0;collapsible=1;marginBottom=0;whiteSpace=wrap;html=1;" vertex="1" parent="1">
          <mxGeometry x="30" y="635" width="160" height="34" as="geometry" />
        </mxCell>
        <mxCell id="zSwx9xJ70yb3x-qx0YBj-67" value="MouseListener" style="swimlane;fontStyle=1;align=center;verticalAlign=top;childLayout=stackLayout;horizontal=1;startSize=26;horizontalStack=0;resizeParent=1;resizeParentMax=0;resizeLast=0;collapsible=1;marginBottom=0;whiteSpace=wrap;html=1;" vertex="1" parent="1">
          <mxGeometry x="30" y="669" width="160" height="34" as="geometry" />
        </mxCell>
        <mxCell id="zSwx9xJ70yb3x-qx0YBj-72" value="various Getters and Setters for all fields" style="swimlane;fontStyle=1;align=center;verticalAlign=top;childLayout=stackLayout;horizontal=1;startSize=50;horizontalStack=0;resizeParent=1;resizeParentMax=0;resizeLast=0;collapsible=1;marginBottom=0;whiteSpace=wrap;html=1;" vertex="1" parent="1">
          <mxGeometry x="320" y="431" width="160" height="58" as="geometry" />
        </mxCell>
        <mxCell id="zSwx9xJ70yb3x-qx0YBj-85" value="GamePanel" style="swimlane;fontStyle=1;align=center;verticalAlign=top;childLayout=stackLayout;horizontal=1;startSize=26;horizontalStack=0;resizeParent=1;resizeParentMax=0;resizeLast=0;collapsible=1;marginBottom=0;whiteSpace=wrap;html=1;" vertex="1" parent="1">
          <mxGeometry x="985" y="175" width="250" height="200" as="geometry" />
        </mxCell>
        <mxCell id="zSwx9xJ70yb3x-qx0YBj-86" value="- gameObjects: GameObjects[]&lt;br&gt;- count: int&lt;br&gt;&amp;nbsp;- map: Map&lt;br&gt;&lt;div&gt;&lt;br&gt;&lt;/div&gt;" style="text;strokeColor=none;fillColor=none;align=left;verticalAlign=top;spacingLeft=4;spacingRight=4;overflow=hidden;rotatable=0;points=[[0,0.5],[1,0.5]];portConstraint=eastwest;whiteSpace=wrap;html=1;" vertex="1" parent="zSwx9xJ70yb3x-qx0YBj-85">
          <mxGeometry y="26" width="250" height="54" as="geometry" />
        </mxCell>
        <mxCell id="zSwx9xJ70yb3x-qx0YBj-87" value="" style="line;strokeWidth=1;fillColor=none;align=left;verticalAlign=middle;spacingTop=-1;spacingLeft=3;spacingRight=3;rotatable=0;labelPosition=right;points=[];portConstraint=eastwest;strokeColor=inherit;" vertex="1" parent="zSwx9xJ70yb3x-qx0YBj-85">
          <mxGeometry y="80" width="250" height="8" as="geometry" />
        </mxCell>
        <mxCell id="zSwx9xJ70yb3x-qx0YBj-88" value="+ addGameObject(GameObject): void&lt;br&gt;+ deleteGameObject(GameObject): void&lt;br&gt;&amp;nbsp;+ getGameObjectArrayLength (int): count&lt;br&gt;&amp;nbsp;+ getMonsters():ArrayList&lt;br&gt;&amp;nbsp;+ paint(Graphics): void&lt;br&gt;&amp;nbsp;+ update(int): void&lt;br&gt;&amp;nbsp;+ mousePressed(MouseEvent): void&lt;br&gt;&lt;br&gt;&lt;div&gt;&lt;br&gt;&lt;/div&gt;" style="text;strokeColor=none;fillColor=none;align=left;verticalAlign=top;spacingLeft=4;spacingRight=4;overflow=hidden;rotatable=0;points=[[0,0.5],[1,0.5]];portConstraint=eastwest;whiteSpace=wrap;html=1;" vertex="1" parent="zSwx9xJ70yb3x-qx0YBj-85">
          <mxGeometry y="88" width="250" height="112" as="geometry" />
        </mxCell>
        <mxCell id="zSwx9xJ70yb3x-qx0YBj-89" value="UtilityMethods" style="swimlane;fontStyle=1;align=center;verticalAlign=top;childLayout=stackLayout;horizontal=1;startSize=26;horizontalStack=0;resizeParent=1;resizeParentMax=0;resizeLast=0;collapsible=1;marginBottom=0;whiteSpace=wrap;html=1;" vertex="1" parent="1">
          <mxGeometry x="1285" y="-174" width="160" height="130" as="geometry" />
        </mxCell>
        <mxCell id="zSwx9xJ70yb3x-qx0YBj-91" value="" style="line;strokeWidth=1;fillColor=none;align=left;verticalAlign=middle;spacingTop=-1;spacingLeft=3;spacingRight=3;rotatable=0;labelPosition=right;points=[];portConstraint=eastwest;strokeColor=inherit;" vertex="1" parent="zSwx9xJ70yb3x-qx0YBj-89">
          <mxGeometry y="26" width="160" height="8" as="geometry" />
        </mxCell>
        <mxCell id="zSwx9xJ70yb3x-qx0YBj-92" value="+ &lt;u&gt;getArrayLength&lt;/u&gt;(ArrayList): int&lt;br&gt;+ getArrayLength(Object[]): int" style="text;strokeColor=none;fillColor=none;align=left;verticalAlign=top;spacingLeft=4;spacingRight=4;overflow=hidden;rotatable=0;points=[[0,0.5],[1,0.5]];portConstraint=eastwest;whiteSpace=wrap;html=1;" vertex="1" parent="zSwx9xJ70yb3x-qx0YBj-89">
          <mxGeometry y="34" width="160" height="96" as="geometry" />
        </mxCell>
        <mxCell id="zSwx9xJ70yb3x-qx0YBj-93" value="Tower" style="swimlane;fontStyle=1;align=center;verticalAlign=top;childLayout=stackLayout;horizontal=1;startSize=26;horizontalStack=0;resizeParent=1;resizeParentMax=0;resizeLast=0;collapsible=1;marginBottom=0;whiteSpace=wrap;html=1;" vertex="1" parent="1">
          <mxGeometry x="970" y="720" width="160" height="150" as="geometry" />
        </mxCell>
        <mxCell id="zSwx9xJ70yb3x-qx0YBj-94" value="- range, fireRate, damagePS, updateCount: double&lt;br&gt;&amp;nbsp;- gamepanel: Gamepanel" style="text;strokeColor=none;fillColor=none;align=left;verticalAlign=top;spacingLeft=4;spacingRight=4;overflow=hidden;rotatable=0;points=[[0,0.5],[1,0.5]];portConstraint=eastwest;whiteSpace=wrap;html=1;" vertex="1" parent="zSwx9xJ70yb3x-qx0YBj-93">
          <mxGeometry y="26" width="160" height="64" as="geometry" />
        </mxCell>
        <mxCell id="zSwx9xJ70yb3x-qx0YBj-95" value="" style="line;strokeWidth=1;fillColor=none;align=left;verticalAlign=middle;spacingTop=-1;spacingLeft=3;spacingRight=3;rotatable=0;labelPosition=right;points=[];portConstraint=eastwest;strokeColor=inherit;" vertex="1" parent="zSwx9xJ70yb3x-qx0YBj-93">
          <mxGeometry y="90" width="160" height="8" as="geometry" />
        </mxCell>
        <mxCell id="zSwx9xJ70yb3x-qx0YBj-96" value="+ update(int): void&amp;nbsp;&lt;br&gt;+ various Setters and Getters" style="text;strokeColor=none;fillColor=none;align=left;verticalAlign=top;spacingLeft=4;spacingRight=4;overflow=hidden;rotatable=0;points=[[0,0.5],[1,0.5]];portConstraint=eastwest;whiteSpace=wrap;html=1;" vertex="1" parent="zSwx9xJ70yb3x-qx0YBj-93">
          <mxGeometry y="98" width="160" height="52" as="geometry" />
        </mxCell>
      </root>
    </mxGraphModel>
  </diagram>
</mxfile>
